/* XPM */
static char *_bcbf5aa5e1549badd9c811eaf62cba6BBR2uNtIzDnBwGmc[] = {
/* columns rows colors chars-per-pixel */
"25 25 5 1 ",
"  c black",
". c magenta",
"X c #B9B9B9",
"o c gray86",
"O c #F9F9FB",
/* pixels */
".........................",
".........................",
".........................",
".........................",
".........................",
".......            ......",
".......            ......",
".......            ......",
"....   XXXooooooXXX   ...",
"....   XXXooooooXXX   ...",
"....   XXXooooooXXX   ...",
"....   oooOOOOOOoooXXX   ",
"....   oooOOOOOOoooXXX   ",
"....   oooOOOOOOoooXXX   ",
"....   XXXooooooXXX   ...",
"....   XXXooooooXXX   ...",
"....   XXXooooooXXX   ...",
".......            ......",
".......            ......",
".......            ......",
".........................",
".........................",
".........................",
".........................",
"........................."
};
