/* XPM */
static char *ed2b24a1866a46d2b8931749c724960dmBwivcQm59pdFRgk[] = {
/* columns rows colors chars-per-pixel */
"70 70 5 1 ",
"  c None",
". c black",
"X c #B9B9B9",
"o c gray86",
"O c #F9F9FB",
/* pixels */
"                                                                      ",
"                                                                      ",
"                                                                      ",
"                                                                      ",
"                                                                      ",
"                                                                      ",
"                                                                      ",
"                                                                      ",
"                                                                      ",
"                                                                      ",
"                    ........................................          ",
"                    ........................................          ",
"                    ........................................          ",
"                    ........................................          ",
"                    ........................................          ",
"                    ........................................          ",
"                    ........................................          ",
"                    ........................................          ",
"                    ........................................          ",
"                    ........................................          ",
"          ..........XXXXXXXXXXooooooooooooooooooooXXXXXXXXXX..........",
"          ..........XXXXXXXXXXooooooooooooooooooooXXXXXXXXXX..........",
"          ..........XXXXXXXXXXooooooooooooooooooooXXXXXXXXXX..........",
"          ..........XXXXXXXXXXooooooooooooooooooooXXXXXXXXXX..........",
"          ..........XXXXXXXXXXooooooooooooooooooooXXXXXXXXXX..........",
"          ..........XXXXXXXXXXooooooooooooooooooooXXXXXXXXXX..........",
"          ..........XXXXXXXXXXooooooooooooooooooooXXXXXXXXXX..........",
"          ..........XXXXXXXXXXooooooooooooooooooooXXXXXXXXXX..........",
"          ..........XXXXXXXXXXooooooooooooooooooooXXXXXXXXXX..........",
"          ..........XXXXXXXXXXooooooooooooooooooooXXXXXXXXXX..........",
"..........XXXXXXXXXXooooooooooOOOOOOOOOOOOOOOOOOOOoooooooooo..........",
"..........XXXXXXXXXXooooooooooOOOOOOOOOOOOOOOOOOOOoooooooooo..........",
"..........XXXXXXXXXXooooooooooOOOOOOOOOOOOOOOOOOOOoooooooooo..........",
"..........XXXXXXXXXXooooooooooOOOOOOOOOOOOOOOOOOOOoooooooooo..........",
"..........XXXXXXXXXXooooooooooOOOOOOOOOOOOOOOOOOOOoooooooooo..........",
"..........XXXXXXXXXXooooooooooOOOOOOOOOOOOOOOOOOOOoooooooooo..........",
"..........XXXXXXXXXXooooooooooOOOOOOOOOOOOOOOOOOOOoooooooooo..........",
"..........XXXXXXXXXXooooooooooOOOOOOOOOOOOOOOOOOOOoooooooooo..........",
"..........XXXXXXXXXXooooooooooOOOOOOOOOOOOOOOOOOOOoooooooooo..........",
"..........XXXXXXXXXXooooooooooOOOOOOOOOOOOOOOOOOOOoooooooooo..........",
"          ..........XXXXXXXXXXooooooooooooooooooooXXXXXXXXXX..........",
"          ..........XXXXXXXXXXooooooooooooooooooooXXXXXXXXXX..........",
"          ..........XXXXXXXXXXooooooooooooooooooooXXXXXXXXXX..........",
"          ..........XXXXXXXXXXooooooooooooooooooooXXXXXXXXXX..........",
"          ..........XXXXXXXXXXooooooooooooooooooooXXXXXXXXXX..........",
"          ..........XXXXXXXXXXooooooooooooooooooooXXXXXXXXXX..........",
"          ..........XXXXXXXXXXooooooooooooooooooooXXXXXXXXXX..........",
"          ..........XXXXXXXXXXooooooooooooooooooooXXXXXXXXXX..........",
"          ..........XXXXXXXXXXooooooooooooooooooooXXXXXXXXXX..........",
"          ..........XXXXXXXXXXooooooooooooooooooooXXXXXXXXXX..........",
"                    ........................................          ",
"                    ........................................          ",
"                    ........................................          ",
"                    ........................................          ",
"                    ........................................          ",
"                    ........................................          ",
"                    ........................................          ",
"                    ........................................          ",
"                    ........................................          ",
"                    ........................................          ",
"                                                                      ",
"                                                                      ",
"                                                                      ",
"                                                                      ",
"                                                                      ",
"                                                                      ",
"                                                                      ",
"                                                                      ",
"                                                                      ",
"                                                                      "
};
