/* XPM */
static char *c77da01a76104ddc96fb0838f9f3721bK89eayRwqyuLvtc9[] = {
/* columns rows colors chars-per-pixel */
"20 20 9 1 ",
"  c black",
". c #7F007F",
"X c gray36",
"o c magenta",
"O c #B9B9B9",
"+ c #CACACA",
"@ c gray86",
"# c #EAEAEB",
"$ c #F9F9FB",
/* pixels */
"oooooooooooooooooooo",
"oooooooooooooooooooo",
"oooooooooooooooooooo",
"oooooooooooooooooooo",
"ooooo          ooooo",
"ooooo          ooooo",
"oo.  OO+@@@@+OO  .oo",
"oo.  OO+@@@@+OO  .oo",
"oo.  OO+@@@@+OO  .oo",
"  XOO@@#$$$$#@@  .oo",
"  XOO@@#$$$$#@@  .oo",
"oo.  OO+@@@@+OO  .oo",
"oo.  OO+@@@@+OO  .oo",
"oo.  OO+@@@@+OO  .oo",
"ooooo          ooooo",
"ooooo          ooooo",
"oooooooooooooooooooo",
"oooooooooooooooooooo",
"oooooooooooooooooooo",
"oooooooooooooooooooo"
};
