/* XPM */
static char *_3778782c0794b6aff1cb41d73013794Kh8bockDJEa4rtLl[] = {
/* columns rows colors chars-per-pixel */
"32 32 5 1 ",
"  c black",
". c magenta",
"X c #B9B9B9",
"o c gray86",
"O c white",
/* pixels */
"................................",
"................................",
"................................",
"................................",
"................................",
"................................",
"........                ........",
"........                ........",
"........                ........",
"........                ........",
"....    XXXXooooooooXXXX    ....",
"....    XXXXooooooooXXXX    ....",
"....    XXXXooooooooXXXX    ....",
"....    XXXXooooooooXXXX    ....",
"....    ooooOOOOOOOOooooXXXX    ",
"....    ooooOOOOOOOOooooXXXX    ",
"....    ooooOOOOOOOOooooXXXX    ",
"....    ooooOOOOOOOOooooXXXX    ",
"....    XXXXooooooooXXXX    ....",
"....    XXXXooooooooXXXX    ....",
"....    XXXXooooooooXXXX    ....",
"....    XXXXooooooooXXXX    ....",
"........                ........",
"........                ........",
"........                ........",
"........                ........",
"................................",
"................................",
"................................",
"................................",
"................................",
"................................"
};
