/* XPM */
static char *_6fd95230e114dbfbc7c39d859f74983np9FjIRrgWZNe2ZD[] = {
/* columns rows colors chars-per-pixel */
"80 80 5 1 ",
"  c black",
". c magenta",
"X c #B9B9B9",
"o c gray86",
"O c #F9F9FB",
/* pixels */
"................................................................................",
"................................................................................",
"................................................................................",
"................................................................................",
"................................................................................",
"................................................................................",
"................................................................................",
"................................................................................",
"................................................................................",
"................................................................................",
"................................................................................",
"................................................................................",
"................................................................................",
"................................................................................",
"................................................................................",
"....................                                        ....................",
"....................                                        ....................",
"....................                                        ....................",
"....................                                        ....................",
"....................                                        ....................",
"....................                                        ....................",
"....................                                        ....................",
"....................                                        ....................",
"....................                                        ....................",
"....................                                        ....................",
"..........          XXXXXXXXXXooooooooooooooooooooXXXXXXXXXX          ..........",
"..........          XXXXXXXXXXooooooooooooooooooooXXXXXXXXXX          ..........",
"..........          XXXXXXXXXXooooooooooooooooooooXXXXXXXXXX          ..........",
"..........          XXXXXXXXXXooooooooooooooooooooXXXXXXXXXX          ..........",
"..........          XXXXXXXXXXooooooooooooooooooooXXXXXXXXXX          ..........",
"..........          XXXXXXXXXXooooooooooooooooooooXXXXXXXXXX          ..........",
"..........          XXXXXXXXXXooooooooooooooooooooXXXXXXXXXX          ..........",
"..........          XXXXXXXXXXooooooooooooooooooooXXXXXXXXXX          ..........",
"..........          XXXXXXXXXXooooooooooooooooooooXXXXXXXXXX          ..........",
"..........          XXXXXXXXXXooooooooooooooooooooXXXXXXXXXX          ..........",
"          XXXXXXXXXXooooooooooOOOOOOOOOOOOOOOOOOOOoooooooooo          ..........",
"          XXXXXXXXXXooooooooooOOOOOOOOOOOOOOOOOOOOoooooooooo          ..........",
"          XXXXXXXXXXooooooooooOOOOOOOOOOOOOOOOOOOOoooooooooo          ..........",
"          XXXXXXXXXXooooooooooOOOOOOOOOOOOOOOOOOOOoooooooooo          ..........",
"          XXXXXXXXXXooooooooooOOOOOOOOOOOOOOOOOOOOoooooooooo          ..........",
"          XXXXXXXXXXooooooooooOOOOOOOOOOOOOOOOOOOOoooooooooo          ..........",
"          XXXXXXXXXXooooooooooOOOOOOOOOOOOOOOOOOOOoooooooooo          ..........",
"          XXXXXXXXXXooooooooooOOOOOOOOOOOOOOOOOOOOoooooooooo          ..........",
"          XXXXXXXXXXooooooooooOOOOOOOOOOOOOOOOOOOOoooooooooo          ..........",
"          XXXXXXXXXXooooooooooOOOOOOOOOOOOOOOOOOOOoooooooooo          ..........",
"..........          XXXXXXXXXXooooooooooooooooooooXXXXXXXXXX          ..........",
"..........          XXXXXXXXXXooooooooooooooooooooXXXXXXXXXX          ..........",
"..........          XXXXXXXXXXooooooooooooooooooooXXXXXXXXXX          ..........",
"..........          XXXXXXXXXXooooooooooooooooooooXXXXXXXXXX          ..........",
"..........          XXXXXXXXXXooooooooooooooooooooXXXXXXXXXX          ..........",
"..........          XXXXXXXXXXooooooooooooooooooooXXXXXXXXXX          ..........",
"..........          XXXXXXXXXXooooooooooooooooooooXXXXXXXXXX          ..........",
"..........          XXXXXXXXXXooooooooooooooooooooXXXXXXXXXX          ..........",
"..........          XXXXXXXXXXooooooooooooooooooooXXXXXXXXXX          ..........",
"..........          XXXXXXXXXXooooooooooooooooooooXXXXXXXXXX          ..........",
"....................                                        ....................",
"....................                                        ....................",
"....................                                        ....................",
"....................                                        ....................",
"....................                                        ....................",
"....................                                        ....................",
"....................                                        ....................",
"....................                                        ....................",
"....................                                        ....................",
"....................                                        ....................",
"................................................................................",
"................................................................................",
"................................................................................",
"................................................................................",
"................................................................................",
"................................................................................",
"................................................................................",
"................................................................................",
"................................................................................",
"................................................................................",
"................................................................................",
"................................................................................",
"................................................................................",
"................................................................................",
"................................................................................"
};
