/* XPM */
static char *_974db15327140cbb07a9ea2b3a498d4yrnKqslmVFaibj88[] = {
/* columns rows colors chars-per-pixel */
"16 16 5 1 ",
"  c black",
". c magenta",
"X c #B9B9B9",
"o c gray86",
"O c #F9F9FB",
/* pixels */
"................",
"................",
"................",
"....        ....",
"....        ....",
"..  XXooooXX  ..",
"..  XXooooXX  ..",
"..  ooOOOOooXX  ",
"..  ooOOOOooXX  ",
"..  XXooooXX  ..",
"..  XXooooXX  ..",
"....        ....",
"....        ....",
"................",
"................",
"................"
};
